<svg xmlns="http://www.w3.org/2000/svg" xmlns:xlink="http://www.w3.org/1999/xlink" width="128" height="128" viewBox="0 0 128 128">
  <defs>
    <clipPath id="clip-UD_Logo_White">
      <rect width="128" height="128"/>
    </clipPath>
  </defs>
  <g id="UD_Logo_White" clip-path="url(#clip-UD_Logo_White)">
    <path id="UD_Logo" data-name="UD Logo" d="M-8827.057-11332.424c19.39-5.156,34.011-22.721,34.011-40.855v-50.091a11.545,11.545,0,0,0-3.83-8.447,13.306,13.306,0,0,0-9.221-3.308h-48.677v31.156l-11.379-11.378v-29.784h60.588a20.9,20.9,0,0,1,14.91,6.2,21.007,21.007,0,0,1,6.176,14.938v49.306a41.994,41.994,0,0,1-3.315,16.457,42.1,42.1,0,0,1-9.038,13.431,41.874,41.874,0,0,1-13.4,9.056,41.808,41.808,0,0,1-16.417,3.324Zm-59.661-3.321a42.026,42.026,0,0,1-13.4-9.059,42.077,42.077,0,0,1-9.038-13.434,42.076,42.076,0,0,1-3.317-16.454v-49.3a20.991,20.991,0,0,1,6.178-14.941,20.912,20.912,0,0,1,14.912-6.192h.269c-3,2.026-9.977,7.416-9.977,13.737v56.988c0,18.8,18.541,30.428,35.717,30.428s35.715-11.632,35.715-30.428v-10.632l11.369,11.37a42.052,42.052,0,0,1-3.3,15.427,42.11,42.11,0,0,1-9.038,13.434,42.033,42.033,0,0,1-13.407,9.059,34.379,34.379,0,0,1-8.108,2.487,78.659,78.659,0,0,1-13.229.831C-8876.733-11332.427-8881.637-11333.593-8886.718-11335.745Z" transform="translate(8912.478 11452.777)" fill="#fff"/>
  </g>
</svg>
